<?xml version="1.0" encoding="UTF-8"?>
<svg xmlns="http://www.w3.org/2000/svg" xmlns:xlink="http://www.w3.org/1999/xlink" viewBox="0 0 1920 1080">
  <defs>
    <style>
      .cls-1 {
        fill: url(#radial-gradient-3);
      }

      .cls-1, .cls-2, .cls-3, .cls-4 {
        mix-blend-mode: overlay;
      }

      .cls-5 {
        isolation: isolate;
      }

      .cls-2 {
        fill: url(#radial-gradient-4);
      }

      .cls-3 {
        fill: #355efc;
      }

      .cls-4 {
        fill: url(#radial-gradient-2);
      }

      .cls-6 {
        fill: url(#radial-gradient);
      }

      .cls-7 {
        clip-path: url(#clippath);
      }

      .cls-8 {
        fill: none;
      }

      .cls-9 {
        fill: #f2f2f2;
      }
    </style>
    <clipPath id="clippath">
      <rect class="cls-8" width="1940" height="1080"/>
    </clipPath>
    <radialGradient id="radial-gradient" cx="1035.87" cy="395.31" fx="1035.87" fy="395.31" r="311.71" gradientTransform="translate(-3049.16 -313.88) scale(3.88 2.16)" gradientUnits="userSpaceOnUse">
      <stop offset=".06" stop-color="#00001e"/>
      <stop offset=".96" stop-color="#150042"/>
    </radialGradient>
    <radialGradient id="radial-gradient-2" cx="525.29" cy="262.73" fx="525.29" fy="262.73" r="201.33" gradientTransform="translate(-962.36 -313.88) scale(2.59 2.16)" gradientUnits="userSpaceOnUse">
      <stop offset=".08" stop-color="#ff23c9"/>
      <stop offset="1" stop-color="#e014bd"/>
    </radialGradient>
    <radialGradient id="radial-gradient-3" cx="743.86" cy="532.59" fx="743.86" fy="532.59" r="307.17" gradientTransform="translate(-1221.97 -313.88) scale(2.81 2.16)" xlink:href="#radial-gradient-2"/>
    <radialGradient id="radial-gradient-4" cx="990.96" cy="190.2" fx="990.96" fy="190.2" r="148.52" xlink:href="#radial-gradient-2"/>
  </defs>
  <g class="cls-5">
    <g id="Layer_1" data-name="Layer 1">
      <g class="cls-7">
        <rect class="cls-6" width="1940" height="1080"/>
        <path class="cls-4" d="M799.47-82.43s0,91.18-113.84,102.82c-113.84,11.64-202.12-42.68-299.7,21.34-97.58,64.02,9.29,351.14-95.25,393.83-104.55,42.68-350.81-13.58-362.43-114.46-11.62-100.88-148.69,188.18-148.69,188.18,0,0,329.9,151.32,541.32,38.8,211.41-112.52,106.87-265.78,141.72-343.38,34.85-77.6,125.45-116.4,295.05-102.82,169.6,13.58,255.56-157.14,255.56-157.14l-213.74-27.16ZM21.53,535.37c-194.73-57.7-32.98-83.93-32.98-83.93,0,0,100.51,39.34,182.17,38.03,81.66-1.31,183.74-66.88,194.73-32.78,10.99,34.1-149.19,136.38-343.92,78.68ZM666.97,61.96c-47.11,30.16-156.97,18.52-201.76,59.09-5.8,5.26-10.15,11.46-14.11,17.76-16,25.45-23.22,54.06-35.02,80.88-4.99,11.34-16.85,41.3-34.62,23.19-5.94-6.05-10.1-14.4-12.92-23.87-7.37-24.72-5.64-57.05-2.84-75.95,4.98-33.61,20.56-69.82,54.73-90.29,72.24-43.28,293.67-20.98,246.55,9.18Zm63.1,17.86c-27.19,0-49.23-5.43-49.23-12.12s22.04-12.12,49.23-12.12,49.23,5.43,49.23,12.12-22.04,12.12-49.23,12.12Z"/>
        <path class="cls-1" d="M1613.35,688.1c94.87-91.57,275.09-149.23,373.26-175.3l-.49-46.31s-433.77,110.35-539.02,321.24c-105.25,210.89-140.34,267.29-341.27,318.79-200.94,51.5-366.79-61.31-491.18-223.15-124.39-161.85-606-225.61-778.23-100.54-172.23,125.06-44.65,247.68-44.65,247.68,0,0,318.95-171.66,535.83-117.71,216.88,53.95,207.32,250.13,523.07,289.36,8.53,1.06,17.03,2.02,25.49,2.92-42.09-14.75-66.57-35.63-67.77-52.26-2.86-39.64,63.02-15.42,63.02-15.42,0,0,223.44,48.45,355.21-30.83,131.77-79.29,214.84-215.84,254.95-162.98,40.1,52.86-151.82,207.03-343.75,259.89-3.98,1.1-7.9,2.07-11.83,3.07,194.36-20.99,354.56-97.91,451.88-237.35,140.34-201.08,411.44-198.63,411.44-198.63l-1.23-116.94c-199.07,31.36-500.46,155.82-374.74,34.48ZM232.62,835.67c-171.87,6.61-464.06,92.5-292.19-66.07,0,0,360.94-85.9,544.27,66.07,183.33,151.97-80.21-6.61-252.08,0Zm365.77,209.18c-14.54,7.62-48-10.65-74.72-40.81-26.72-30.16-36.6-60.78-22.05-68.4,14.54-7.62,48,10.65,74.72,40.81,26.72,30.16,36.6,60.78,22.05,68.4Zm1149.59-257.63c-114.58,59.47-206.25,66.07-143.23,8.81,63.02-57.26,148.96-57.26,148.96-57.26,0,0,108.85-11.01-5.73,48.45Z"/>
        <path class="cls-2" d="M1362.75,315.88c-176.3-4.03,442.32-494.45,442.32-494.45l-39.56-13.22c-107.3,91.41-347.97,289.77-374.84,253.62-26.63-35.82,190.77-204.33,293.4-280.83l-11.82-3.95s-560.3,358.98-439.55,570.74c120.76,211.76,741.44-131.09,741.44-131.09l12.08-274.28s-447.15,377.48-623.46,373.44Zm97.33-254.04c63.62-28.98-82.9,146.51-123.39,120.75-40.49-25.76,123.39-120.75,123.39-120.75Zm-85.92,323.97c-3.17,9.72-23.22,13.63-44.8,8.73-21.58-4.9-36.5-16.75-33.34-26.47,3.17-9.72,23.22-13.63,44.8-8.73,21.58,4.9,36.5,16.75,33.34,26.47Zm155.33-18.07c-217.86,40.25-192.8-33.81-32.78-59.57,160.02-25.76,296.91-173.88,296.91-173.88l40.49,91.77s-86.76,101.43-304.62,141.68Z"/>
        <path class="cls-3" d="M1089.76,112.87l-126.08,73.3c-5.47,3.18-12.23,3.2-17.73,.05l-126.52-72.54c-5.49-3.15-8.89-8.99-8.91-15.32l-.44-145.84c-.02-6.33,3.34-12.19,8.82-15.38l126.08-73.3c5.47-3.18,12.23-3.2,17.73-.05l126.52,72.54c5.49,3.15,8.89,8.99,8.91,15.32l.44,145.84c.02,6.33-3.34,12.19-8.82,15.38Z"/>
        <rect class="cls-3" x="-1.67" y="8" width="1920" height="120.5"/>
        <rect class="cls-9" x="-.5" y="-.5" width="1920" height="120.5"/>
        <path class="cls-9" d="M1090.93,104.37l-126.08,73.3c-5.47,3.18-12.23,3.2-17.73,.05l-126.52-72.54c-5.49-3.15-8.89-8.99-8.91-15.32l-.44-145.84c-.02-6.33,3.34-12.19,8.82-15.38l126.08-73.3c5.47-3.18,12.23-3.2,17.73-.05l126.52,72.54c5.49,3.15,8.89,8.99,8.91,15.32l.44,145.84c.02,6.33-3.34,12.19-8.82,15.38Z"/>
      </g>
    </g>
  </g>
</svg>